<?xml version="1.0" standalone="no"?>
<!DOCTYPE svg PUBLIC "-//W3C//DTD SVG 20010904//EN"
 "http://www.w3.org/TR/2001/REC-SVG-20010904/DTD/svg10.dtd">
<svg version="1.0" xmlns="http://www.w3.org/2000/svg"
 width="512.000000pt" height="512.000000pt" viewBox="0 0 512.000000 512.000000"
 preserveAspectRatio="xMidYMid meet">
<metadata>
Created by potrace 1.14, written by Peter Selinger 2001-2017
</metadata>
<g transform="translate(0.000000,512.000000) scale(0.100000,-0.100000)"
fill="#000000" stroke="none">
<path d="M1188 5069 c-113 -114 -207 -272 -272 -458 -56 -160 -69 -248 -70
-476 -1 -211 3 -258 30 -394 l17 -84 -39 -31 c-60 -47 -229 -221 -309 -317
-67 -80 -168 -226 -227 -329 -33 -57 -188 -365 -188 -373 0 -4 -11 -30 -25
-59 -14 -29 -42 -99 -63 -154 -37 -99 -38 -104 -35 -219 5 -214 46 -381 140
-565 171 -335 485 -627 899 -834 147 -74 320 -148 422 -181 48 -15 52 -19 53
-48 1 -33 4 -57 16 -117 3 -19 7 -37 7 -40 3 -20 46 -104 77 -150 48 -70 97
-120 162 -163 73 -49 138 -68 242 -74 164 -8 299 36 398 130 52 49 127 169
127 202 0 29 17 14 31 -27 48 -145 190 -266 348 -295 43 -8 214 -9 256 -2 83
15 152 56 235 139 112 111 179 257 180 387 0 41 0 41 53 58 185 61 515 218
666 319 314 209 537 452 668 726 80 167 122 333 130 520 5 119 4 129 -19 180
-14 30 -35 84 -48 120 -12 36 -26 70 -30 75 -4 6 -17 37 -30 70 -22 56 -130
274 -168 340 -107 185 -193 307 -302 429 -60 67 -218 225 -258 257 l-33 26 22
119 c18 94 22 158 23 309 1 260 -9 344 -61 510 -23 73 -129 291 -153 315 -3 3
-19 25 -35 49 -38 56 -112 139 -135 151 -12 6 -23 4 -36 -8 -11 -9 -37 -32
-59 -51 -33 -28 -87 -76 -199 -176 -6 -5 -34 -30 -62 -55 -27 -25 -85 -76
-129 -115 -43 -38 -86 -77 -95 -85 -9 -8 -28 -25 -42 -38 -15 -13 -72 -36
-147 -57 -137 -40 -260 -90 -439 -181 l-123 -62 -142 72 c-196 100 -343 157
-477 186 -41 9 -67 23 -101 54 -25 22 -66 59 -91 81 -24 22 -80 72 -123 110
-43 39 -86 77 -95 85 -101 88 -161 141 -200 175 -25 21 -55 48 -67 58 -22 19
-22 19 -75 -34z"/>
</g>
</svg>
